<?xml version="1.0" encoding="utf-8"?>
<svg viewBox="0 0 1656 1656" xmlns="http://www.w3.org/2000/svg">
  <defs>
    <clipPath clipPathUnits="userSpaceOnUse" id="cp1">
      <path d="m381 1526c0 0 75-141 84-156 9-15 78-48 111-69 33-21 36-33 51-54 15-21 45-93 45-93 0 0 15-36 36-42 21-6 381 93 369 93-12 0 159 171 171 183 12 12 57 117 54 132-3 15-3 42-3 42l3 15c0 0-246.14 111.97-522 72-92.31-13.37-138.71-10.04-190-22-105.95-24.71-164.02-64.61-209-101z"/>
    </clipPath>
    <clipPath clipPathUnits="userSpaceOnUse" id="cp2">
      <path d="m723 1100c132 15 270-144 270-144 0 0 3 18 12 102 9 84-108 327-108 327 0 0-27 36-30 69-3 33-30 198-18 201 12 3-203 4-209-20-6-24 50-325 50-325 0 0 27-42 36-45 9-3-9-150-9-150"/>
    </clipPath>
    <clipPath clipPathUnits="userSpaceOnUse" id="cp3">
      <path d="m592 1005c-6.86-7.65-3.57-23.78 1-34 4.57-10.22 10.45-7.92 13-8 2.55-0.08 13.6 7.79 20 8 6.4 0.21 11.31-4.5 20-10 8.69-5.5 19 7 19 7 0 0 35.17 26.93 53 38 17.83 11.07 25.45 8.93 27 9 1.55 0.07 4-2 4-2 0 0-0.67 1.33-3 4-2.33 2.67-30.67 27.67-42 35-11.33 7.33-18.33 7.67-32 11-12.7 3.1-45.33-1-59-7-13.67-6-14.67-17-14-25 0.67-8 7-16 7-16-4-1.71-7.14-2.35-14-10z"/>
    </clipPath>
    <clipPath clipPathUnits="userSpaceOnUse" id="cp4">
      <path d="m582 419c0 0-18-6-39 3-21 9-42 63-51 81-9 18-36 180-57 192-6.24 3.56 2.2 33.85 3 57 0.98 28.4-1.75 77.8 6 126 4.7 29.23 17.29 69.21 33 102 10.25 21.38 27.49 48.35 48 75 18.16 23.61 20.5 25.6 51 51 8.07 6.72 25.67 18.75 48 30 6.3 3.17 36.16 13.94 42 15 33 6 57-6 57-6v24c0 0 7.79 0.85-36 6-9.85 1.16-30.43 28.32-42 57-53.25 78-102 87-102 87 0 0-3.95-8.46-6-12-11.97-20.69-40.69-72.26-33-144 9-84 3-18 3-18 0 0-27 114-12 168 15 54 39 63 48 75 9 12-57-15-66-33-9-18 18 60 45 69 27 9-69 69-120 9-51-60-60-72-54-120 6-48 6-180 21-234 15-54 24-177 24-210 0-33-9-87-30-102-21-15-42-78-24-108 18-30 27-30 21-57-6-27-18-84-6-111 12-27 39-78 48-99 9-21 12-51 30-72 18-21 15-30 36-51 21-21 81-60 117-81 36-21 153-36 177-30 24 6 42 6 42 6 0 0 33-6 63-9 30-3 114 27 162 63 48 36 126 99 144 150 18 51 54 150 54 258 0 108 18 165 24 195 6 30 30 135 51 162 21 27 42 78 60 105 18 27 87 63 99 141 12 78 36 138 3 162-33 24-48 54-81 75-33 21-6 30-27 45-21 15-30 39-48 36-18-3-51-108-51-108l-147-171c0 0-42 39-57 51-15 12-42 69-84 102-42 33-48 39-45 63 3 24 3 33 3 33 0 0-54-75-51-114 3-39 15-78 36-114 21-36 72-123 69-219-3-96-18-279-18-279 0 0-9-96-9-123 0-27 3-39 3-39 0 0-39 24-93-15-54-39-87-78-93-111-6-33-12-57-33-72-21-15-63-33-81-18"/>
    </clipPath>
    <clipPath clipPathUnits="userSpaceOnUse" id="cp5">
      <path d="m1083 713c0 0 27-34.5 51-27 24 7.5 39 18 45 45 6 27 1.5 90-15 111-16.5 21-42 46.5-54 45-12-1.5-21 3-21 3z"/>
    </clipPath>
    <style>
		.s0 { fill: #977c56 } 
		.s1 { opacity: .4;mix-blend-mode: multiply;fill: #000000 } 
		.s2 { fill: #e1e1e1 } 
		.s3 { mix-blend-mode: multiply;fill: #e1e1e1 } 
		.s4 { fill: #e9bea8 } 
		.s5 { fill: #fde5d6 } 
		.s6 { fill: #eabfa7 } 
		.s7 { fill: #e88d7e } 
		.s8 { fill: #cb7a6c } 
		.s9 { fill: #ffffff } 
		.s10 { fill: #2b2624 } 
		.s11 { fill: #393939 } 
		.s12 { mix-blend-mode: multiply;fill: #393939 } 
		.s13 { fill: #c0c0c0 } 
	</style>
  </defs>
  <g id="JACKET">
    <g clip-path="url(#cp1)">
      <path id="Shape 4" fill-rule="evenodd" class="s0" d="m381 1526c0 0 75-141 84-156 9-15 78-48 111-69 33-21 36-33 51-54 15-21 45-93 45-93 0 0 15-36 36-42 21-6 381 93 369 93-12 0 159 171 171 183 12 12 57 117 54 132-3 15-3 42-3 42l3 15c0 0-246.1 112-522 72-92.3-13.4-138.7-10-190-22-106-24.7-164-64.6-209-101z"/>
      <path id="Shape 12" fill-rule="evenodd" class="s1" d="m1065 1364l18-135 27-15 75 84c0 0-64.5-52.5-84-6-19.5 46.5-51 132-51 132z"/>
      <path id="Shape 11" fill-rule="evenodd" class="s1" d="m537 1613c-19.5-28.5-40.5-169.5-39-159 1.5 10.5 54 153 54 153 0 0 4.5 34.5-15 6z"/>
      <path id="Shape 10" fill-rule="evenodd" class="s1" d="m597 1376c-10.5-6-84 42-81 33 3-9 82.5-69 90-63 7.5 6 63 129 63 129-4.5-13.5-61.5-93-72-99z"/>
      <path id="Shape 9" fill-rule="evenodd" class="s1" d="m849 1463c0 0 21-31.5 27-33 6-1.5 19.5 30 33 36 13.5 6 15-49.5 30-51 15-1.5 15-18 15-18 0 0 7.5 30 15 36 7.5 6 51 33 51 33l6 18c0 0-72-34.5-72-42 0-7.5-6-18-6-18 0 0-24 6-33 54-9 48-3 6-3 6 0 0-24-37.5-30-33-6 4.5-33 12-33 12z"/>
      <path id="Shape 8" fill-rule="evenodd" class="s1" d="m1026 1649c0 0 18-66 42-87 24-21 9-6 15-9 6-3-43.5 39-36 102 7.5 63-21-6-21-6z"/>
      <path id="Shape 7" fill-rule="evenodd" class="s1" d="m1008 1652c0 0 10.5-73.5 51-141 40.5-67.5 75-72 75-72 0 0-87 48-108 207-21 159-18 6-18 6z"/>
    </g>
  </g>
  <g id="SHIRT">
    <g clip-path="url(#cp2)">
      <path id="Shape 3" fill-rule="evenodd" class="s2" d="m723 1100c132 15 270-144 270-144 0 0 3 18 12 102 9 84-108 327-108 327 0 0-27 36-30 69-3 33-30 198-18 201 12 3-203 4-209-20-6-24 50-325 50-325 0 0 27-42 36-45 9-3-9-150-9-150"/>
      <path id="Shape 15" fill-rule="evenodd" class="s3" d="m723 1118l21-3 18 27c0 0 6 24-21 12-27-12-21 24-21 24-10.5-6 3-60 3-60z"/>
      <path id="Shape 13" fill-rule="evenodd" class="s3" d="m723 1253l9 9c0 0-19.5 0 69 24 88.5 24 114 12 114 12 0 0 16.5-16.5 9 3-7.5 19.5-84 25.5-120 24-36-1.5 30 30 21 33-9 3-28.5-7.5-63-24-34.5-16.5-51-69-51-69z"/>
    </g>
  </g>
  <g id="FACE">
    <path id="Shape 14" fill-rule="evenodd" class="s4" d="m990 971v18l9 30-9 66-3 9c0 0-43.5 45-102 69-58.5 24-102 24-126 21-24-3-24-18-24-18v-36z"/>
    <path id="Shape 1" fill-rule="evenodd" class="s5" d="m471 401c36-39 138-24 267-12 129 12 219 189 219 189l15 147c0 0 69 18 111-30 42-48 57-12 90-6 33 6 15 90-3 138-18 48-81 54-81 54l-33 30c0 0 18-33-66 54-26.7 27.6-111.5 104.4-138 120-56.9 33.6-87.4 47.9-114 54-39 9-60 42-180-45-120-87-135-210-147-282-12-72 18-360 18-360 0 0 6-12 42-51z"/>
    <path id="Shape 41" fill-rule="evenodd" class="s6" d="m627 776c-3.2-13-2-5.8-4-20 0.8-90.1-82.8-101.7-96-107-7.2-2.9-28.9-11-40-15-17.4-6.3-36.1-8.8-58-9 0-2 0-6 0-8 14.7-6.7 9.4-12.4 36-12 5.1 10.5 94.2 25.2 111 33q6 0 12 0 6 7.5 12 15c33.2 33.3 27.4 65 27 123zm306-144c-5.3 0.6-24.3 3-61 5-35.1 1.9-79.2 10-110 16-36.9 12.1-40.6 20.4-52 22-2.9-5.4-8.6-12-17-12 0-3-6-1-6-4 17-0.1 63.8-14.5 78-21q15-1.5 30-3c33.5-15.3 87.4-14.7 135-15 1.7 4.4 2.8 5 3 12zm-464 109c-2.3-86.5 128-40.9 129 9-9.3 3.4-23.3 2.2-37 2-4.3-6.4-22.5-1.9-32-3-18.3-2.1-40.8-7.4-60-8zm441 24c-9.2-1.2-7.6-4-13-7q-19.5 0-39 0c-15.9-7.1-69.7-6-93-6-1.8-4.7-0.1-5.2 0-13 7.2-21.7 7.8-27.5 22-36 6.9-4.1 28.9-6.4 34-4 8 0 26.5 7 36 10 22.8 11.8 45.5 15.9 53 56zm-261 158c-16.8 7.8-52.2-2.5-56-9 0-13.1 3-23.6 7-26 14.7-26.9 79.7 2.8 80 23-12.4 1.9-20.7 7.2-31 12z"/>
    <g id="MOUTH">
      <g clip-path="url(#cp3)">
        <path id="Shape 38" class="s7" d="m592 1005c-6.9-7.6-3.6-23.8 1-34 4.6-10.2 10.5-7.9 13-8 2.5-0.1 13.6 7.8 20 8 6.4 0.2 11.3-4.5 20-10 8.7-5.5 19 7 19 7 0 0 35.2 26.9 53 38 17.8 11.1 25.5 8.9 27 9 1.5 0.1 4-2 4-2 0 0-0.7 1.3-3 4-2.3 2.7-30.7 27.7-42 35-11.3 7.3-18.3 7.7-32 11-12.7 3.1-45.3-1-59-7-13.7-6-14.7-17-14-25 0.7-8 7-16 7-16-4-1.7-7.1-2.4-14-10z"/>
        <path id="Shape 40" class="s8" d="m713 1054c3.5-14.5-8.5-20-15-25-6.5-5-32.5-4.5-36-4-3.5 0.5-16-4-16-4 0 0 4-2-22-5-26-3-26.5 4-24 0 2.5-4 24-8 24-8 0 0 22 4 75 9 53 5 53-8 53-8 11.5 6.5-42.5 59.5-39 45z"/>
      </g>
      <path id="Shape 39" class="s9" d="m662.1 1017.1c-7.1 0.2-4.7-0.4-7.1-0.1-0.2 0-4.1-0.5-5-1-5.5-3-31-6-31-6 0 0-4-13.5-1-11 3 2.5 35 1 35 1 0 0 1-1 13 4 12 5 51 14 51 14-30.1-1.2-46.3-1-54.9-0.9z"/>
    </g>
    <g id="EYES">
      <path id="Shape 42" fill-rule="evenodd" class="s9" d="m487 715c21 1.5 8-1.5 37 4 24.4 1.5 40.8 29.5 66 33 0 3-3 8-3 11-33.8 13.5-69.8 34.2-103 10-10-7.3-25.9-19.3-15-41 4.9-9.7 7.5-9.8 18-17zm308 10c-11.8 5.8-20.6 22.5-30 27-0.8 23.1 25.8 35.8 36 38 0 0 25.3 2.6 51-2 26.1-4.7 57.7-22.7 53-22 0-3 1-2 1-5-20.8-3-90.5-46.1-111-36z"/>
      <path id="Shape 43" fill-rule="evenodd" class="s10" d="m509 710c50.6-1.2 53.3 60 12 70-24.2 5.8-47.7-21.7-40-45 6.1-18.4 14.5-15.9 28-25zm295 7c50.6-1.2 53.3 60 12 70-24.2 5.8-47.7-21.7-40-45 6.1-18.4 14.5-15.9 28-25z"/>
      <path id="Shape 34" class="s10" d="m458 732c-10.5-1.6-14-14-14-14 0 0-3.5-2 6 3 9.5 5 16.6 5.4 18 3 3-5.2 9-10 9-10 0 0-8.8-0.9-11-6-3.5-7.8-1-18-1-18 0 0-0.1-0.9 2 4 6.6 15.7 20.8 13.6 28 11 10-3.6 21.2-2.5 36 2 16.1 4.9 52.7 29.3 60 37 6.4 6.7 1 17 1 17 0 0 4 2.9-30-19-39.7-25.6-55.6-23.8-67-22-21.5 3.5-30 25-30 25-10-2.5 0.5-11.9-7-13z"/>
      <path id="Shape 35" class="s10" d="m905 764c-4.5 1.5-20.2-7.6-49-22-30-15-51-15-51-15 0 0-25.1 4.4-33 20-4.2 8.3-4.8 12.4-7 13-1.7 0.5-1.3 0.4-3 0-1.8-0.4-3-2-3-2 0 0 0.6-3.4 0-3-1.2 0.8-3.5 0.7-7 0-7.8-1.5-12.5-9.4-13-13 0.3 2.3 8.7 4.6 15 5 4.8 0.3 7.8 0.1 8-1 3-15 12.3-15 5-14-11.9 1.7-17-17-17-17 0 0-2.5-4 4 3 6.5 7 23 5 23 5 0 0 8.6-6.7 13-8 7.7-2.2 21-4 47 3 20.9 5.6 48.6 23.3 63 34 5 3.7 11 10 11 10-2 0.5-1.5 0.5-6 2z"/>
      <path id="Shape 36" class="s10" d="m600 660c-1.5-3-143-40-143-40l-15-12c0 0 0-12.5 31-11 31 1.5 108 28 110 29 2 1 23 28 23 28 3 4-4.5 9-6 6z"/>
      <path id="Shape 37" class="s10" d="m711 629c7.5-6.5 52-17 67-21 15-4 106-16 106-16l38 37-29 2c0 0-46.5 0.5-81 3-34.5 2.5-27.5 4-51 8-23.5 4-53 25-53 25 0 0-1.5 5.5-13-2-11.5-7.5-1.5-35.5-3-31-1.5 4.5 2 21 2 21 2.5-6.5 9.5-19.5 17-26z"/>
    </g>
  </g>
  <g id="HAIR">
    <g clip-path="url(#cp4)">
      <path id="Shape 2" fill-rule="evenodd" class="s11" d="m582 419c0 0-18-6-39 3-21 9-42 63-51 81-9 18-36 180-57 192-6.2 3.6 2.2 33.9 3 57 1 28.4-1.7 77.8 6 126 4.7 29.2 17.3 69.2 33 102 10.2 21.4 27.5 48.3 48 75 18.2 23.6 20.5 25.6 51 51 8.1 6.7 25.7 18.8 48 30 6.3 3.2 36.2 13.9 42 15 33 6 57-6 57-6v24c0 0 7.8 0.8-36 6-9.9 1.2-30.4 28.3-42 57-53.3 78-102 87-102 87 0 0-4-8.5-6-12-12-20.7-40.7-72.3-33-144 9-84 3-18 3-18 0 0-27 114-12 168 15 54 39 63 48 75 9 12-57-15-66-33-9-18 18 60 45 69 27 9-69 69-120 9-51-60-60-72-54-120 6-48 6-180 21-234 15-54 24-177 24-210 0-33-9-87-30-102-21-15-42-78-24-108 18-30 27-30 21-57-6-27-18-84-6-111 12-27 39-78 48-99 9-21 12-51 30-72 18-21 15-30 36-51 21-21 81-60 117-81 36-21 153-36 177-30 24 6 42 6 42 6 0 0 33-6 63-9 30-3 114 27 162 63 48 36 126 99 144 150 18 51 54 150 54 258 0 108 18 165 24 195 6 30 30 135 51 162 21 27 42 78 60 105 18 27 87 63 99 141 12 78 36 138 3 162-33 24-48 54-81 75-33 21-6 30-27 45-21 15-30 39-48 36-18-3-51-108-51-108l-147-171c0 0-42 39-57 51-15 12-42 69-84 102-42 33-48 39-45 63 3 24 3 33 3 33 0 0-54-75-51-114 3-39 15-78 36-114 21-36 72-123 69-219-3-96-18-279-18-279 0 0-9-96-9-123 0-27 3-39 3-39 0 0-39 24-93-15-54-39-87-78-93-111-6-33-12-57-33-72-21-15-63-33-81-18"/>
      <path id="Shape 32" fill-rule="evenodd" class="s12" d="m984 617c0 0-63-19.5-81-36-18-16.5-48-36-48-45 0-9 37.5 90 129 81z"/>
      <path id="Shape 31" fill-rule="evenodd" class="s12" d="m1065 587c0 0-63 4.5-108-42-45-46.5-12-15-12-15 0 0 51 93 120 57z"/>
      <path id="Shape 30" fill-rule="evenodd" class="s12" d="m1287 899c0 0-48-51-60-75-12-24-36-103.5-33-126 3-22.5-1.5 100.5 105 174 106.5 73.5-12 27-12 27z"/>
      <path id="Shape 29" fill-rule="evenodd" class="s12" d="m801 143l114-9c0 0 304.5 114 117 75-187.5-39-267 15-267 15 0-30 36-81 36-81z"/>
      <path id="Shape 28" fill-rule="evenodd" class="s12" d="m567 1082l177 48-39 189c0 0 0 81-90-15-90-96-60-225-60-225z"/>
      <path id="Shape 27" fill-rule="evenodd" class="s12" d="m1380 1478c0 0 30-85.5 33-141 3-55.5-1.5-132-12-141-10.5-9 48 28.5 33 267-15 238.5-45 18-45 18z"/>
      <path id="Shape 26" fill-rule="evenodd" class="s12" d="m1038 1349c0 0 31.5-88.5 30-162-1.5-73.5 3-147 3-147 0 0 60 190.5 21 261-39 70.5-54 48-54 48z"/>
      <path id="Shape 25" fill-rule="evenodd" class="s12" d="m408 755c0 25.5-45 30-45 30 0 0 0-13.5 9-12 9 1.5 21-16.5 9-33-12-16.5 57-45 57-45 16.5 31.5-30 34.5-30 60z"/>
      <path id="Shape 24" fill-rule="evenodd" class="s12" d="m1401 1118c0 0-67.5-46.5-93-66-25.5-19.5-82.5-55.5-105-96-22.5-40.5-30-75-30-75 0 0 21 109.5 210 189 189 79.5 18 48 18 48z"/>
      <path id="Shape 23" fill-rule="evenodd" class="s12" d="m1089 731c0 0-10.5-69-12-84-1.5-15 0-63 0-63 0 0 16.5-3 15-12-1.5-9-16.5-16.5-36-30-19.5-13.5-39-21-39-30 0-9-7.5-87-21-108-13.5-21-24-42-36-54-12-12-36-36-36-36 0 0 96 66 108 141 12 75 57 66 66 93 9 27 10.5 130.5 36 156 25.5 25.5-45 27-45 27z"/>
      <path id="Shape 22" fill-rule="evenodd" class="s12" d="m525 440c9-9 19.5-42 42-42 22.5 0 18 30 18 30 0 0-69 21-60 12z"/>
      <path id="Shape 21" fill-rule="evenodd" class="s12" d="m639 431c0 0 3-40.5 12-48 9-7.5 28.5-22.5 48-12 19.5 10.5 64.5 78 66 111 1.5 33-126-51-126-51z"/>
      <path id="Shape 20" fill-rule="evenodd" class="s12" d="m426 305c0 0 1.5-48 105-105 103.5-57 156 36 156 36 0 0 0-1.5-18-12-18-10.5-25.5-9-45-9-19.5 0-91.5 42-99 51-7.5 9-108 60-108 60z"/>
      <path id="Shape 19" fill-rule="evenodd" class="s12" d="m324 542c0 0 19.5-88.5 36-111 16.5-22.5 174-132 174-132 0 0 0-1.5-15 9-15 10.5-78 91.5-96 114-18 22.5-43.5 121.5-45 153-1.5 31.5-39 63-39 63z"/>
      <path id="Shape 18" fill-rule="evenodd" class="s12" d="m312 1418c0.6-12.2 55.5-644.5 63.2-363.9 1.1 40.9-3 212.9 14.8 303.9 13.3 68 33.1 95.2 47.9 105.2 7.1 4.8 12.1 5.8 12.1 5.8z"/>
      <path id="Shape 17" fill-rule="evenodd" class="s12" d="m1110 1271c0 0 31.5-39 33-87 1.5-48 0-60 0-60l-6-12c0 0 84 127.5 96 150 12 22.5 72 157.5 72 174 0 16.5 10.5 120-3 135-13.5 15-192-300-192-300z"/>
      <path id="Shape 16" fill-rule="evenodd" class="s12" d="m510 1016c15 16.5-3 111-3 111l-9 78 27 111 39 78c0 0-27 25.5-75-21-48-46.5-30-162-24-183 6-21 21-201 21-201 0 0 9 10.5 24 27z"/>
    </g>
  </g>
  <g id="EAR">
    <g clip-path="url(#cp5)">
      <path id="Shape 5" fill-rule="evenodd" class="s5" d="m1083 713c0 0 27-34.5 51-27 24 7.5 39 18 45 45 6 27 1.5 90-15 111-16.5 21-42 46.5-54 45-12-1.5-21 3-21 3z"/>
      <path id="Shape 6" fill-rule="evenodd" class="s4" d="m1077 806c0 0 19.8-46.9 33-63 13.5-16.5 31.5-27 39-12 7.5 15 6 27 6 27 0 0-12-34.5-33-3-21 31.5-3 36-3 36 0 0 6 18-6 33-12 15-6 9-6 9 0 0 0-42-30-27z"/>
    </g>
  </g>
  <g id="EARRINGS">
    <path id="Shape 33 copy" fill-rule="evenodd" class="s13" d="m1153.1 884.7c-7.4 2-16.8-0.9-22.6-9.2l2.3-1.6c0.7-0.6 1.9 0.4 2.8 1.4 4.2 4.5 10.3 6.2 15.9 4.7 3.9-1.1 7.1-3.7 9-7.2 1.8-3.6 2.1-7.7 0.8-11.7-2.4-7-9.3-11.7-16.5-11.2-0.7 0-1.3-0.2-1.8-0.6-0.6-0.4-0.9-1-1-1.7-0.1-0.6 0.1-1.3 0.5-1.8 0.4-0.4 1-0.7 1.7-0.8 9.5-0.6 18.7 5.6 21.7 14.8 1.8 5.3 1.4 10.7-1 15.4-1.4 2.5-3.2 4.7-5.4 6.4-1.9 1.4-4.1 2.4-6.4 3.1zm-8.6-36.7v-0.1z"/>
    <path id="Shape 33" fill-rule="evenodd" class="s13" d="m1119.2 902c-9.2 0.7-19.3-4.8-24.2-15.6l3.1-1.4c1-0.6 2.1 0.9 2.9 2.3 3.8 6 10.5 9.4 17.5 8.9 4.8-0.4 9.1-2.7 12.1-6.4 2.9-3.7 4.2-8.4 3.6-13.2-1-8.6-8-15.6-16.5-16.7-0.8-0.1-1.5-0.5-2-1.1-0.5-0.6-0.7-1.3-0.7-2.1 0.1-0.8 0.4-1.5 1-1.9 0.6-0.5 1.4-0.7 2.1-0.6 11.3 1.4 20.5 10.6 21.9 21.9 0.8 6.4-1 12.6-4.9 17.5-2.1 2.6-4.7 4.7-7.8 6.2-2.5 1.2-5.2 1.9-8.1 2.2zm-1.4-44.4h0.1z"/>
  </g>
</svg>